<svg id="Layer_1" data-name="Layer 1" xmlns="http://www.w3.org/2000/svg" viewBox="0 0 378.33 171.33"><defs><style>.cls-1{fill:#fff;}.cls-2{fill:#fbb040;}.cls-3{fill:#be1e2d;}.cls-3,.cls-4{opacity:0.76;}.cls-4{fill:#009444;}</style></defs><title>logo</title><path class="cls-1" d="M5.8,70.31c.16-2.77.33-6.89.33-10.5V10.67h7.31V36.2h.17c2.6-4.53,7.31-7.47,13.86-7.47,10.08,0,17.22,8.4,17.13,20.75,0,14.53-9.15,21.75-18.22,21.75-5.88,0-10.59-2.27-13.61-7.64h-.25l-.34,6.72ZM13.44,54a13.65,13.65,0,0,0,.34,2.69,11.4,11.4,0,0,0,11.08,8.65c7.73,0,12.35-6.3,12.35-15.62,0-8.15-4.2-15.12-12.09-15.12a11.78,11.78,0,0,0-11.26,9.07,14.45,14.45,0,0,0-.42,3Z"/><path class="cls-1" d="M90.72,49.64c0,15-10.42,21.59-20.25,21.59-11,0-19.48-8.06-19.48-20.91,0-13.61,8.9-21.59,20.16-21.59C82.82,28.73,90.72,37.21,90.72,49.64Zm-32.26.42c0,8.91,5.13,15.63,12.35,15.63,7.06,0,12.35-6.64,12.35-15.79C83.16,43,79.71,34.27,71,34.27S58.46,42.34,58.46,50.06Z"/><path class="cls-1" d="M136.83,49.64c0,15-10.41,21.59-20.24,21.59-11,0-19.49-8.06-19.49-20.91,0-13.61,8.91-21.59,20.16-21.59C128.94,28.73,136.83,37.21,136.83,49.64Zm-32.25.42c0,8.91,5.12,15.63,12.35,15.63,7,0,12.34-6.64,12.34-15.79,0-6.89-3.44-15.63-12.18-15.63S104.58,42.34,104.58,50.06Z"/><path class="cls-1" d="M153.47,48.3h.16c1-1.43,2.44-3.19,3.62-4.62l11.92-14h8.91L162.37,46.37l17.89,23.94h-9l-14-19.49L153.47,55V70.31h-7.31V10.67h7.31Z"/><path class="cls-1" d="M24.29,138.23H7.83V91.53H23.71v5.54q4.53-6.79,12.18-6.8a13.58,13.58,0,0,1,6,1.34l-1.34,15.71A19.66,19.66,0,0,0,34,106.15q-9.75,0-9.75,13Z"/><path class="cls-1" d="M93.17,113.62a45.39,45.39,0,0,1-.5,6.47H60.33Q62.94,126,70.49,126a24.1,24.1,0,0,0,13.53-4l6.38,10.92a35,35,0,0,1-20.75,6.38q-12.42,0-19.23-7a24.07,24.07,0,0,1-6.81-17.39,23.78,23.78,0,0,1,7-17.55q7.14-7,18.31-7,10.5,0,17.39,6.3Q93.17,102.79,93.17,113.62ZM68.9,103.29q-6.56,0-8.82,5.8H77.47Q75.37,103.29,68.9,103.29Z"/><path class="cls-1" d="M128.71,90.35A21,21,0,0,1,145,97.41q6.39,7,6.39,17.39A25.25,25.25,0,0,1,145,132.27a20.78,20.78,0,0,1-16.21,7.14A18.66,18.66,0,0,1,116.27,135v22.43H99.73V91.53H116V95A18.83,18.83,0,0,1,128.71,90.35Zm-3.36,33.94a8.88,8.88,0,0,0,6.63-2.65,9.84,9.84,0,0,0,0-13.35,9.53,9.53,0,0,0-13.23,0,9.66,9.66,0,0,0,0,13.27A8.9,8.9,0,0,0,125.35,124.29Z"/><path class="cls-1" d="M180.45,139.41q-10.84,0-16.93-5.71t-6.09-16.21v-26H174v26.21a6.69,6.69,0,0,0,1.76,4.79,6.22,6.22,0,0,0,4.71,1.84,6.42,6.42,0,0,0,4.79-1.8,6.66,6.66,0,0,0,1.76-4.83V91.53h16.55v26q0,10.5-6.09,16.21T180.45,139.41Z"/><path class="cls-1" d="M239.75,90.35a21.74,21.74,0,0,1,16.55,7q6.63,6.89,6.64,17.55t-6.64,17.64a21.78,21.78,0,0,1-16.46,6.89,18.3,18.3,0,0,1-12.44-4.54v3.36H211.53V74.06H228V94.3A18.34,18.34,0,0,1,239.75,90.35Zm6.39,24.45a9.17,9.17,0,0,0-2.69-6.68,9.41,9.41,0,0,0-16.13,6.68,9.36,9.36,0,0,0,2.69,6.8,9.54,9.54,0,0,0,13.44,0A9.4,9.4,0,0,0,246.14,114.8Z"/><path class="cls-1" d="M286,74.06v64.17H269.57V74.06Z"/><path class="cls-1" d="M294,78.76a8.8,8.8,0,0,1,2.68-6.51,9.51,9.51,0,0,1,13.15,0,9.4,9.4,0,0,1,0,13.06,9.64,9.64,0,0,1-13.19,0A8.81,8.81,0,0,1,294,78.76Zm17.55,12.77v46.7H295V91.53Z"/><path class="cls-1" d="M370.12,138.23H350.71l-12.93-17.72-1.6,1.51v16.21H319.72V74.06h16.46v29.65l12.43-12.18h19.83L348.7,110.18Z"/><circle class="cls-2" cx="215.82" cy="37.91" r="20"/><circle class="cls-3" cx="241.32" cy="38.41" r="20.5"/><circle class="cls-4" cx="267.32" cy="38.41" r="20.5"/></svg>